<svg id="Слой_1" data-name="Слой 1" xmlns="http://www.w3.org/2000/svg" viewBox="0 0 876.76 439.28"><defs><style>.cls-1{fill:#14bf01;}.cls-1,.cls-2,.cls-3{fill-rule:evenodd;}.cls-2{fill:#1c55b5;}.cls-3{fill:#fff;}</style></defs><path class="cls-1" d="M784.6,66.51c-5.59,3-17.41,7.11-26.13,9-4.69,1-28.9,1.64-70.87,1.75l-63.35.18a3.16,3.16,0,0,0-.76.09l-14.18,3.66c-58.93,15.19-94.44,66.23-86.27,124l.78,5.53a3.08,3.08,0,0,0,2.14,2.51l9.22,2.86c6.1,1.89,16.07,5,22.17,6.84,32.43,10,82,11.4,113.14,3.22,39.45-10.35,79.68-60.28,113.84-141.29C794.1,61.73,794.1,61.37,784.6,66.51ZM639.8,124.88v11.53a3.08,3.08,0,0,0,3,3.08l12.24.31,12.19.31a3.08,3.08,0,0,1,3,3.14L670,156.42l-.25,13.29a3.08,3.08,0,0,1-3,3l-11.26.31c-17,.48-16.59,0-16.08,16.91l.31,10.06a3.08,3.08,0,0,1-3,3.17l-13.87.32-13.83.31a3.08,3.08,0,0,1-3.15-3.07V176.42a3.07,3.07,0,0,0-3.07-3.08H578.45a3.08,3.08,0,0,1-3.08-3.08V143.19a3.08,3.08,0,0,1,3.08-3.08h12.16c11.18,0,15.29-.46,15.42-1.73.09-1,0-7.15-.14-13.76-.4-15.84-1.27-15.13,17.74-14.67l13.17.32a3.07,3.07,0,0,1,3,3.07ZM522.46,224.09c-.47,1.21-1.53,11.34-2.38,22.5-5.29,70.1,16.44,140.76,56,182,7.65,8,15.37,13.26,11.12,7.62C575.3,420.41,559,385.85,559,376.37c0-11.9,24.11-4.59,57.35,17.39,22.43,14.83,21.45,12.47-7-16.73-41.7-42.83-42-43.25-42.06-50.29,0-6.06,26.26-53.25,45.23-81.28,3.28-4.84,4.31-9.71,2.06-9.71-1.86,0-10.86,10.21-23.77,27-19.78,25.7-32.41,36.63-42.39,36.68-8.36,0-21.22-40.28-21.34-66.88C527.11,223.8,524.43,219,522.46,224.09Zm24.75,40.13c-9.46,10-6.35,27.11,4.94,27.11,8.79,0,15.14-7.73,15.14-18.43C567.29,259.61,556.12,254.78,547.21,264.22Zm-207,55.87,381.21-34.74c-14,4.84-21.77,16.36-24.49,36.49l-.53,3.91a3.07,3.07,0,0,1-3,2.66h-9.29a3.08,3.08,0,0,1-3.08-3l-.33-18.78-.32-18.79a3.08,3.08,0,0,0-3.08-3H651.46a3.07,3.07,0,0,0-3.07,3l-.66,52.81c-.8,64.38-2.66,58.16,17.32,57.89l12.26-.16a3.08,3.08,0,0,0,3-3l.33-20.21L681,355a3.08,3.08,0,0,1,3.08-3h9a3.09,3.09,0,0,1,3,2.61l1.22,7.85c4.55,29.23,15.06,37.37,48.06,37.22C783,399.47,793,388.49,794.3,346,795.88,292.38,768.09,269.25,721.44,285.35ZM141.1,362.14m682.91-78c-15.33,4.33-16.63,9.47-16.63,65.54v44.69a3.08,3.08,0,0,0,3.08,3.08H836.2a3.08,3.08,0,0,0,3.08-3.05l.34-39.07c.44-50.7-2.13-45.8,24-45.8,20.24,0,20.6-.06,21.22-3.12,1.41-7,1.88-18.7.81-20.43C884.48,284.06,830,282.44,824,284.14Zm-62.5,26.34c9.14,7.19,9.21,55.8.08,61.78-15.82,10.35-24.77-1.29-24.68-32.08C737,310.91,746.88,299,761.51,310.48Z" transform="translate(-9.49 0.76)"/><path class="cls-2" d="M9.49,338.76c0,30.62,10.91,43.18,40.43,46.57,9.12,1,10.1,1.92,10.13,9,0,5.9,3.1,6.94,19.42,6.52,11-.29,12.47-1.33,12.47-8.71v-3.12A3.08,3.08,0,0,1,94.57,386l8.42-1.22c54.49-7.94,53.44-92.85-1.15-93.13-8.25,0-9.73-1.22-10.18-8.08L91.43,280a3.08,3.08,0,0,0-3-2.88l-12.77-.32-12.44-.31a3.06,3.06,0,0,0-3.15,3.07v3.71c0,7.63.67,7.21-14.55,9.18-25.16,3.25-36,17.24-36,46.36" transform="translate(-9.49 0.76)"/><path class="cls-3" d="M60.62,316.37c-.07.89-.23,11.59-.34,23.77C60,365,60,365,49.73,360.15,38.65,354.9,37.36,323.47,48,317.78,55,314.05,60.88,313.39,60.62,316.37Z" transform="translate(-9.49 0.76)"/><path class="cls-3" d="M102.79,317.54c10.89,6.9,9.62,38-1.75,42.73-10.74,4.48-10.49,5-10.49-22.31V317.4a3.08,3.08,0,0,1,3.71-3l.8.16A28.11,28.11,0,0,1,102.79,317.54Z" transform="translate(-9.49 0.76)"/><path class="cls-2" d="M146.05,357.84c-11.83,39.19-12.47,35.51,6.18,35.51h13.26a3.07,3.07,0,0,0,2.84-1.89l1.09-2.61a92.58,92.58,0,0,0,3.68-13.19l1.28-6.18a3.08,3.08,0,0,1,3.08-2.46l14,.33,14.26.33a3.07,3.07,0,0,1,2.91,2.34l1.33,5.33c1,4.19,2.51,9.95,3.25,12.81l.76,2.89a3.08,3.08,0,0,0,3,2.3H230.5c19.2,0,18.49,4.46,6-37.84-5.44-18.4-12.27-41.57-15.17-51.47-6.24-21.26-7.58-22.49-19.31-22.84-4.43-.14-8.34-.32-9.88-.41-1.16.1-5.76.3-10.87.29-13.45,1.21-12.21-.49-20.75,28.5" transform="translate(-9.49 0.76)"/><path class="cls-3" d="M196.5,321c2.05,8.19,4.15,16.61,4.66,18.71h0a3.07,3.07,0,0,1-3,3.81h-6.5c-5.73,0-10.4-.47-10.38-1s2.19-9.14,4.8-19,4.78-18.26,4.81-18.58C191.15,302.13,193.38,308.55,196.5,321Z" transform="translate(-9.49 0.76)"/><path class="cls-2" d="M347.68,316.79c0-32.6-19.14-41.32-79.4-36.18l-7.6.65a3.08,3.08,0,0,0-2.81,3.05l-.35,52.48c-.28,43.32,0,55.53,1.39,56.4,1,.61,8.09,1.12,15.84,1.13l11.57,0a3.07,3.07,0,0,0,3-2.47l.27-1.33c.42-2.1.61-10.82.44-19.39l-.26-12.43a3.08,3.08,0,0,1,3.08-3.15h12.9c33.48,0,41.92-7.8,41.91-38.78" transform="translate(-9.49 0.76)"/><path class="cls-3" d="M313.21,306.52c9.58,9.56,1,25.52-13.75,25.52h-7.32a3.08,3.08,0,0,1-3.08-3.08V307.42a3.08,3.08,0,0,1,3.08-3.08h7.91C308.19,304.34,311.6,304.91,313.21,306.52Z" transform="translate(-9.49 0.76)"/><path class="cls-2" d="M370.54,282.12c-13.8,1.4-13-2.14-15.57,67.84-1.79,48.52-3,44.74,14,44.21l10.56-.32a3.1,3.1,0,0,0,2.92-2.46l.5-2.46c.55-2.67,1.44-22.21,2-43.42s1.45-37.73,2-36.7c1.08,2.05,3.05,10.38,9.87,41.75,5.89,27.11,6.05,27.29,24.6,27.29,21,0,20.19,1.32,30.68-49.14,2.37-11.42,4.52-21,4.77-21.22.85-.85,2,19.51,2.84,48.9.44,16,1.15,31.1,1.58,33.57l.33,2a3.07,3.07,0,0,0,3,2.55h23.1a3.08,3.08,0,0,0,3.08-3.1l0-4.86c-.2-26.95-3.91-97.09-5.27-99.63-2.63-4.91-10.14-6.43-27.22-5.52-23.25,1.25-21.14-1.64-29.77,40.8-6.12,30.15-6.67,32-7.57,25.75-1.5-10.5-12-57.69-13.42-60.37C404.88,282.54,389.14,280.24,370.54,282.12Z" transform="translate(-9.49 0.76)"/><path class="cls-2" d="M558.69-.24a68,68,0,0,0-1.5,7.1c-2,12.05-11.91,26.94-35.28,53-41.87,46.65-53.8,77-43,109.23,4.67,13.92,23.77,39.76,29.38,39.76.31,0,.95-6.69,1.42-14.88,3.17-55.07,34.79-100.22,77.16-110.18,8.37-2,8.93-3.44,5.68-15C585.85,44.8,560.7-6.43,558.69-.24Z" transform="translate(-9.49 0.76)"/></svg>